<?xml version="1.0" encoding="utf-8"?>
<!-- Generator: Adobe Illustrator 23.0.1, SVG Export Plug-In . SVG Version: 6.00 Build 0)  -->
<svg version="1.1" xmlns="http://www.w3.org/2000/svg" xmlns:xlink="http://www.w3.org/1999/xlink" x="0px" y="0px"
	 viewBox="0 0 357.2 442.1" style="enable-background:new 0 0 357.2 442.1;" xml:space="preserve">
<style type="text/css">
	.st0{fill:#111111;}
	.st1{fill:#FFFFFF;}
	.st2{fill:#FCF7F0;}
	.st3{fill:none;stroke:#FFF8EE;stroke-width:2.1498;stroke-miterlimit:10;}
	.st4{fill:#111111;stroke:#FFF8EE;stroke-width:2.1498;stroke-miterlimit:10;}
	.st5{clip-path:url(#SVGID_2_);fill:url(#SVGID_3_);stroke:url(#SVGID_4_);stroke-miterlimit:10;}
	.st6{fill:none;stroke:#FFFFFF;stroke-miterlimit:10;}
	.st7{fill:url(#SVGID_10_);}
	.st8{fill:url(#SVGID_11_);}
	.st9{fill:url(#SVGID_12_);}
	.st10{fill:url(#SVGID_13_);}
	.st11{fill:#2A110C;}
	.st12{fill:url(#SVGID_14_);}
	.st13{fill:url(#SVGID_15_);}
	.st14{fill:url(#SVGID_16_);}
	.st15{fill:url(#SVGID_17_);}
	.st16{fill:url(#SVGID_18_);}
	.st17{fill:url(#SVGID_19_);}
	.st18{fill:url(#SVGID_20_);}
	.st19{fill:url(#SVGID_21_);}
	.st20{fill:url(#SVGID_22_);}
	.st21{fill:url(#SVGID_23_);}
	.st22{fill:url(#SVGID_24_);}
	.st23{fill:url(#SVGID_25_);}
	.st24{fill:url(#SVGID_26_);}
	.st25{fill:url(#SVGID_27_);}
	.st26{fill:url(#SVGID_28_);}
	.st27{fill:url(#SVGID_29_);}
	.st28{fill:url(#SVGID_30_);}
	.st29{fill:url(#SVGID_31_);}
	.st30{fill:url(#SVGID_32_);}
	.st31{fill:url(#SVGID_33_);}
	.st32{fill:url(#SVGID_34_);}
	.st33{fill:url(#SVGID_35_);}
	.st34{opacity:0.35;fill:url(#SVGID_36_);}
	.st35{fill:url(#SVGID_37_);}
	.st36{fill:url(#SVGID_38_);}
	.st37{fill:url(#SVGID_39_);}
	.st38{fill:url(#SVGID_40_);}
	.st39{fill:url(#SVGID_41_);}
	.st40{fill:url(#SVGID_42_);}
	.st41{fill:none;stroke:#556BF2;stroke-width:2.924;stroke-miterlimit:10;}
	.st42{fill:#556BF2;}
	.st43{filter:url(#Adobe_OpacityMaskFilter);}
	.st44{filter:url(#Adobe_OpacityMaskFilter_1_);}
	.st45{mask:url(#SVGID_43_);fill:url(#SVGID_44_);}
	.st46{filter:url(#Adobe_OpacityMaskFilter_2_);}
	.st47{filter:url(#Adobe_OpacityMaskFilter_3_);}
	.st48{mask:url(#SVGID_45_);fill:url(#SVGID_46_);}
	.st49{filter:url(#Adobe_OpacityMaskFilter_4_);}
	.st50{filter:url(#Adobe_OpacityMaskFilter_5_);}
	.st51{mask:url(#SVGID_47_);fill:url(#SVGID_48_);}
	.st52{filter:url(#Adobe_OpacityMaskFilter_6_);}
	.st53{filter:url(#Adobe_OpacityMaskFilter_7_);}
	.st54{mask:url(#SVGID_49_);fill:url(#SVGID_50_);}
	.st55{opacity:0.5;fill:none;stroke:#FFFFFF;stroke-miterlimit:10;}
	.st56{filter:url(#Adobe_OpacityMaskFilter_8_);}
	.st57{filter:url(#Adobe_OpacityMaskFilter_9_);}
	.st58{mask:url(#SVGID_51_);fill:url(#SVGID_52_);}
	.st59{fill:#00D381;}
	.st60{filter:url(#Adobe_OpacityMaskFilter_10_);}
	.st61{filter:url(#Adobe_OpacityMaskFilter_11_);}
	.st62{mask:url(#SVGID_53_);fill:url(#SVGID_54_);}
	.st63{filter:url(#Adobe_OpacityMaskFilter_12_);}
	.st64{filter:url(#Adobe_OpacityMaskFilter_13_);}
	.st65{mask:url(#SVGID_55_);fill:url(#SVGID_56_);}
	.st66{filter:url(#Adobe_OpacityMaskFilter_14_);}
	.st67{filter:url(#Adobe_OpacityMaskFilter_15_);}
	.st68{mask:url(#SVGID_57_);fill:url(#SVGID_58_);}
	.st69{fill:url(#SVGID_59_);}
	.st70{fill:url(#SVGID_60_);}
	.st71{fill:#4B1FA3;stroke:#00D381;stroke-miterlimit:10;}
	.st72{fill:#00FBFA;}
	.st73{opacity:0.5;fill:#13181D;}
	.st74{filter:url(#Adobe_OpacityMaskFilter_16_);}
	.st75{filter:url(#Adobe_OpacityMaskFilter_17_);}
	.st76{mask:url(#SVGID_61_);fill:url(#SVGID_62_);}
	.st77{filter:url(#Adobe_OpacityMaskFilter_18_);}
	.st78{filter:url(#Adobe_OpacityMaskFilter_19_);}
	.st79{mask:url(#SVGID_63_);fill:url(#SVGID_64_);}
	.st80{filter:url(#Adobe_OpacityMaskFilter_20_);}
	.st81{filter:url(#Adobe_OpacityMaskFilter_21_);}
	.st82{mask:url(#SVGID_65_);fill:url(#SVGID_66_);}
	.st83{filter:url(#Adobe_OpacityMaskFilter_22_);}
	.st84{filter:url(#Adobe_OpacityMaskFilter_23_);}
	.st85{mask:url(#SVGID_67_);fill:url(#SVGID_68_);}
	.st86{filter:url(#Adobe_OpacityMaskFilter_24_);}
	.st87{filter:url(#Adobe_OpacityMaskFilter_25_);}
	.st88{mask:url(#SVGID_69_);fill:url(#SVGID_70_);}
	.st89{filter:url(#Adobe_OpacityMaskFilter_26_);}
	.st90{filter:url(#Adobe_OpacityMaskFilter_27_);}
	.st91{mask:url(#SVGID_71_);fill:url(#SVGID_72_);}
	.st92{filter:url(#Adobe_OpacityMaskFilter_28_);}
	.st93{filter:url(#Adobe_OpacityMaskFilter_29_);}
	.st94{mask:url(#SVGID_73_);fill:url(#SVGID_74_);}
	.st95{filter:url(#Adobe_OpacityMaskFilter_30_);}
	.st96{filter:url(#Adobe_OpacityMaskFilter_31_);}
	.st97{mask:url(#SVGID_75_);fill:url(#SVGID_76_);}
	.st98{fill:url(#SVGID_77_);}
	.st99{fill:url(#SVGID_78_);}
	.st100{fill:url(#SVGID_79_);}
	.st101{fill:url(#SVGID_80_);}
	.st102{fill:url(#SVGID_81_);}
	.st103{fill:url(#SVGID_82_);}
	.st104{fill:url(#SVGID_83_);}
	.st105{fill:url(#SVGID_84_);}
	.st106{fill:url(#SVGID_85_);}
	.st107{fill:url(#SVGID_86_);}
	.st108{fill:url(#SVGID_87_);}
	.st109{fill:url(#SVGID_88_);}
	.st110{fill:url(#SVGID_89_);}
	.st111{fill:url(#SVGID_90_);}
	.st112{fill:url(#SVGID_91_);}
	.st113{fill:url(#SVGID_92_);}
	.st114{fill:url(#SVGID_93_);}
	.st115{fill:url(#SVGID_94_);}
	.st116{fill:url(#SVGID_95_);}
	.st117{fill:none;stroke:#00D381;stroke-miterlimit:10;}
	.st118{opacity:0.8;fill:#FFFFFF;}
	.st119{fill:url(#SVGID_96_);}
	.st120{fill:#240A6C;}
	.st121{fill:#4B1FA3;}
	.st122{opacity:0.8;fill:#00D381;}
	.st123{fill:url(#SVGID_97_);}
	.st124{fill:#0A0A0A;}
	.st125{display:none;}
</style>
<g id="bg">
</g>
<g id="content">
	<g>
		<path class="st6" d="M0.5,20.6C0.5,13,3.3,7.7,7.7,5.3C7.9,5.2,8,5.1,8.2,5c0.2-0.1,0.4-0.2,0.6-0.3C9,4.6,9.2,4.5,9.4,4.4
			c0.2-0.1,0.4-0.2,0.5-0.3c0.2-0.1,0.4-0.2,0.6-0.3c0.2-0.1,0.4-0.2,0.5-0.3c0.2-0.1,0.4-0.2,0.6-0.3C11.8,3,12,2.9,12.2,2.8
			c0.2-0.1,0.4-0.2,0.5-0.3c0.2-0.1,0.4-0.2,0.6-0.3c4.2-2.6,10.2-2.3,16.8,1.5l303.2,175.1c12.9,7.5,23.4,25.6,23.4,40.4v202.3
			c0,7.6-2.8,12.9-7.2,15.3c-0.2,0.1-0.4,0.2-0.5,0.3c-0.2,0.1-0.4,0.2-0.6,0.3c-0.2,0.1-0.4,0.2-0.6,0.3c-0.2,0.1-0.4,0.2-0.5,0.3
			c-0.2,0.1-0.4,0.2-0.6,0.3c-0.2,0.1-0.4,0.2-0.5,0.3c-0.2,0.1-0.4,0.2-0.6,0.3c-0.2,0.1-0.4,0.2-0.6,0.3c-0.2,0.1-0.4,0.2-0.5,0.3
			c-0.2,0.1-0.4,0.2-0.6,0.3c-4.2,2.6-10.2,2.3-16.8-1.5L23.9,263.3C11,255.9,0.5,237.8,0.5,222.9V20.6z"/>
		<path class="st6" d="M0.5,222.9c0,14.9,10.5,33,23.4,40.4l303.2,175.1c12.9,7.5,23.4,1.4,23.4-13.4V222.7
			c0-14.9-10.5-33-23.4-40.4L23.9,7.2C11-0.3,0.5,5.7,0.5,20.6V222.9z"/>
		<path class="st6" d="M4.7,227.8l0-202.3C4.7,19,7,14.2,11,11.9c4-2.3,9.4-1.8,15,1.4l303.2,175.1c4.8,2.8,9.3,7.4,12.3,12.6
			c3,5.3,4.7,11.2,4.7,16.8v58.9l-3.8-2.2c-5.3-3.1-9.7-0.6-9.7,5.6v53.9c0,6.2,4.3,13.7,9.6,16.7l3.8,2.2l0,67.1
			c0,6.5-2.2,11.3-6.3,13.6c-4.1,2.3-9.4,1.8-15-1.4L21.8,257.2c-4.8-2.8-9.3-7.4-12.3-12.6C6.4,239.4,4.7,233.4,4.7,227.8z"/>
		<path class="st6" d="M341.6,311.1c0,0.3,0.1,0.6,0.3,1c0.2,0.3,0.4,0.6,0.7,0.7c0.2,0.1,0.4,0.1,0.6,0.1c0.2-0.1,0.2-0.3,0.2-0.5
			c0-0.3-0.1-0.6-0.3-1c-0.2-0.3-0.4-0.6-0.7-0.7c-0.2-0.1-0.4-0.2-0.6-0.1C341.7,310.6,341.6,310.8,341.6,311.1z M341.9,328.7
			c0.2,0.3,0.4,0.6,0.7,0.7c0.2,0.1,0.4,0.2,0.6,0.1c0.2-0.1,0.2-0.3,0.2-0.5c0-0.3-0.1-0.6-0.3-1c-0.2-0.3-0.4-0.6-0.7-0.7
			c-0.2-0.1-0.4-0.1-0.6-0.1c-0.2,0.1-0.2,0.3-0.2,0.5C341.6,328.1,341.7,328.4,341.9,328.7z M341.6,294.2c0,0.3,0.1,0.6,0.3,1
			c0.2,0.3,0.4,0.6,0.7,0.7c0.2,0.1,0.4,0.1,0.6,0.1c0.1-0.1,0.2-0.3,0.2-0.5c0-0.3-0.1-0.6-0.3-1c-0.2-0.3-0.4-0.6-0.7-0.7
			c-0.2-0.1-0.4-0.2-0.6-0.1C341.6,293.8,341.6,294,341.6,294.2z"/>
		<g>
			<path class="st6" d="M353.6,261c-0.4,0.2-0.7,0-0.8-0.4l0-11.9c0-0.5,0.3-1.1,0.7-1.3l0,0c0.4-0.2,0.8,0,0.8,0.4l0,11.9
				C354.3,260.2,354,260.8,353.6,261L353.6,261z"/>
			<path class="st6" d="M353.6,374c-0.4,0.2-0.8,0-0.8-0.4l0-4.8c0-0.5,0.3-1.1,0.8-1.3l0,0c0.4-0.2,0.8,0,0.8,0.4l0,4.8
				C354.4,373.2,354.1,373.8,353.6,374L353.6,374z"/>
			<path class="st6" d="M353.6,382.7c-0.4,0.2-0.8,0-0.8-0.4l0-4.8c0-0.5,0.3-1.1,0.8-1.3l0,0c0.4-0.2,0.8,0,0.8,0.4l0,4.8
				C354.4,381.9,354,382.5,353.6,382.7L353.6,382.7z"/>
			<path class="st6" d="M353.6,394.9c-0.4,0.2-0.8,0-0.8-0.4l0-0.5c0-0.5,0.3-1.1,0.8-1.3l0,0c0.4-0.2,0.7,0,0.7,0.4l0,0.5
				C354.3,394.1,354,394.7,353.6,394.9L353.6,394.9z"/>
		</g>
	</g>
</g>
<g id="guides" class="st125">
</g>
</svg>
